<svg width="37" height="37" viewBox="0 0 37 37" fill="none" xmlns="http://www.w3.org/2000/svg">
<circle cx="18.2666" cy="18.856" r="18" fill="#D0D6DC"/>
<path d="M17.4665 28.4559C16.5828 28.4559 15.8665 27.7395 15.8665 26.8559V20.4559C15.8665 19.5722 15.1502 18.8559 14.2665 18.8559C13.3828 18.8559 12.6665 18.1395 12.6665 17.2559C12.6665 16.3722 13.3828 15.6559 14.2665 15.6559C15.1502 15.6559 15.8665 14.9395 15.8665 14.0559V13.9375C15.8665 10.6839 17.4513 9.25586 20.1553 9.25586C20.4889 9.25586 20.7821 9.26223 21.039 9.27244C21.8555 9.30489 22.4593 10.0053 22.4593 10.8224C22.4593 11.7246 21.728 12.4559 20.8259 12.4559H20.6153C19.4673 12.4559 19.0665 13.0615 19.0665 14.2887C19.0665 15.0437 19.6786 15.6559 20.4337 15.6559H20.6291C21.5799 15.6559 22.3103 16.4979 22.1759 17.4392L22.1645 17.519C22.055 18.2861 21.3981 18.8559 20.6233 18.8559C19.7635 18.8559 19.0665 19.5529 19.0665 20.4127V26.8559C19.0665 27.7395 18.3502 28.4559 17.4665 28.4559Z" fill="white"/>
</svg>
