<svg width="37" height="37" viewBox="0 0 37 37" fill="none" xmlns="http://www.w3.org/2000/svg">
<circle cx="18.2666" cy="18.856" r="18" fill="#D0D6DC"/>
<path d="M13.4668 26.8559H9.4668V14.8559H13.4668V26.8559ZM11.4676 13.2559C10.3612 13.2559 9.4668 12.3591 9.4668 11.2551C9.4668 10.1511 10.3628 9.25586 11.4676 9.25586C12.57 9.25586 13.4668 10.1527 13.4668 11.2551C13.4668 12.3591 12.57 13.2559 11.4676 13.2559ZM27.8668 26.8559H24.0212V21.0159C24.0212 19.6231 23.9948 17.8319 22.022 17.8319C20.0196 17.8319 19.7116 19.3487 19.7116 20.9151V26.8559H15.8668V14.8471H19.558V16.4879H19.61C20.1236 15.5439 21.3788 14.5487 23.2508 14.5487C27.1468 14.5487 27.8668 17.0359 27.8668 20.2695V26.8559Z" fill="white"/>
</svg>
