<svg width="37" height="37" viewBox="0 0 37 37" fill="none" xmlns="http://www.w3.org/2000/svg">
<circle cx="18.2666" cy="18.856" r="18" fill="#D0D6DC"/>
<path d="M28.2666 12.6673C27.4925 12.9756 26.6627 13.1825 25.7903 13.2765C26.6807 12.798 27.3648 12.0405 27.6856 11.1393C26.8542 11.5811 25.9294 11.9026 24.9491 12.0758C24.1635 11.3242 23.044 10.856 21.8051 10.856C19.4254 10.856 17.4957 12.5851 17.4957 14.7194C17.4957 15.0218 17.535 15.3168 17.6087 15.6001C14.0276 15.4387 10.8542 13.9003 8.72814 11.562C8.35662 12.1345 8.14549 12.798 8.14549 13.5055C8.14549 14.8457 8.9049 16.0288 10.062 16.7231C9.35498 16.7025 8.6905 16.5278 8.10948 16.2387C8.10948 16.2548 8.10948 16.271 8.10948 16.2871C8.10948 18.1601 9.59557 19.7205 11.5645 20.0772C11.2044 20.1653 10.8231 20.2122 10.4303 20.2122C10.152 20.2122 9.88199 20.1887 9.61848 20.1418C10.1684 21.6757 11.7592 22.7957 13.643 22.8265C12.17 23.8628 10.3124 24.4794 8.29279 24.4794C7.94418 24.4794 7.60212 24.4617 7.2666 24.425C9.17168 25.523 11.4368 26.1615 13.8705 26.1615C21.7952 26.1615 26.1291 20.2739 26.1291 15.1686C26.1291 15.0013 26.1242 14.8324 26.1177 14.668C26.9589 14.1235 27.6889 13.4424 28.2666 12.6673Z" fill="white"/>
</svg>
